<?xml version="1.0" standalone="no"?>
<!DOCTYPE svg PUBLIC "-//W3C//DTD SVG 20010904//EN"
 "http://www.w3.org/TR/2001/REC-SVG-20010904/DTD/svg10.dtd">
<svg version="1.0" xmlns="http://www.w3.org/2000/svg"
 width="1024.000000pt" height="1024.000000pt" viewBox="0 0 1024.000000 1024.000000"
 preserveAspectRatio="xMidYMid meet">

<g transform="translate(0.000000,1024.000000) scale(0.100000,-0.100000)"
fill="#000000" stroke="none">
<path d="M0 5120 l0 -5120 1338 0 1338 0 19 53 c14 37 36 68 79 110 100 97
106 101 106 71 0 -17 -75 -171 -94 -194 -7 -8 -16 -21 -20 -27 -6 -10 744 -13
3733 -13 l3741 0 0 5120 0 5120 -5120 0 -5120 0 0 -5120z m5343 3199 c20 -8
37 -18 38 -24 2 -28 46 -151 73 -203 9 -18 13 -32 9 -32 -4 0 8 -11 27 -25 21
-16 28 -25 18 -25 -9 0 -18 -3 -20 -7 -1 -5 -30 -30 -63 -58 -66 -54 -125
-115 -125 -129 0 -5 21 10 48 34 71 63 96 84 121 98 39 23 32 7 -12 -28 -88
-72 -205 -196 -231 -247 -33 -65 -56 -153 -56 -211 l0 -45 -50 54 c-27 30 -50
52 -50 49 -1 -3 -3 -36 -4 -75 -1 -38 -8 -123 -15 -187 -7 -65 -11 -138 -9
-163 3 -49 -2 -55 -57 -55 -32 0 -34 1 -25 28 4 15 13 105 20 201 7 96 16 186
21 199 16 41 1 38 -46 -8 -25 -24 -47 -41 -50 -38 -3 2 0 19 6 35 19 55 -27
173 -136 353 -30 49 -55 94 -55 100 0 6 -6 8 -12 4 -7 -4 -6 1 3 12 34 39 65
179 71 319 l3 59 55 18 c47 15 85 17 260 14 141 -2 217 -8 243 -17z m-626
-487 c38 -39 53 -62 38 -62 -11 0 -205 173 -205 182 0 14 116 -70 167 -120z
m-1248 -288 c3 -16 1 -17 -13 -5 -19 16 -21 34 -3 29 6 -3 14 -13 16 -24z
m3255 -74 c-6 -29 7 -42 21 -20 9 15 33 0 56 -36 23 -37 52 -44 69 -16 10 14
11 13 7 -11 -3 -21 -1 -25 8 -17 22 19 26 -6 5 -30 -24 -28 -26 -56 -4 -64 24
-9 32 3 11 18 -22 17 -22 26 3 26 14 0 20 7 20 21 0 16 4 19 23 14 15 -4 18
-3 8 3 -9 7 -10 12 -2 16 6 4 12 1 12 -6 2 -24 -3 -43 -13 -49 -6 -4 -7 -16
-3 -28 3 -12 10 -19 15 -16 13 8 98 -15 110 -30 14 -16 2 -45 -19 -46 -13 0
-14 -2 -1 -6 8 -4 20 -13 26 -22 17 -22 44 3 44 41 0 16 4 27 10 23 5 -3 7
-12 3 -20 -3 -9 1 -15 10 -15 8 0 21 -7 28 -16 11 -14 10 -19 -11 -36 -14 -11
-24 -27 -22 -34 2 -8 -1 -14 -7 -14 -5 0 -4 -11 2 -25 7 -14 18 -25 25 -25 17
0 15 19 -3 26 -8 4 -15 10 -15 15 0 16 32 10 46 -8 12 -17 13 -16 14 4 0 12
-6 23 -12 26 -7 2 -10 8 -6 12 4 4 19 0 34 -9 24 -17 25 -19 9 -36 -16 -17
-15 -19 4 -29 27 -15 34 -14 28 3 -4 10 -1 13 8 10 8 -3 17 -14 20 -25 5 -13
16 -19 37 -19 23 0 29 4 24 15 -9 25 8 17 20 -9 7 -16 8 -28 2 -34 -20 -20 -4
-47 27 -47 25 0 30 -4 28 -22 -2 -13 2 -23 7 -23 6 0 10 6 10 14 0 11 8 12 39
4 22 -6 42 -16 45 -24 6 -16 -19 -19 -29 -4 -3 6 -17 10 -31 10 -13 0 -24 -4
-24 -10 0 -16 -27 -12 -34 5 -7 18 -26 20 -26 3 0 -11 21 -25 67 -45 6 -2 13
4 16 14 3 10 3 -1 0 -24 -4 -29 -2 -43 6 -43 6 0 11 -9 11 -20 0 -14 5 -18 16
-13 9 3 20 0 24 -8 5 -7 12 -10 17 -6 11 12 -12 42 -36 45 -27 4 -27 22 -1 29
11 3 20 10 20 16 0 7 5 6 13 -2 10 -11 10 -14 0 -18 -20 -7 -15 -23 6 -23 24
0 35 -28 20 -47 -17 -20 4 -41 24 -24 12 9 17 6 25 -18 6 -16 8 -39 5 -50 -4
-15 -1 -21 11 -21 19 0 22 -16 4 -23 -7 -2 -9 -8 -5 -13 4 -5 11 -3 15 3 13
21 67 20 59 -2 -4 -8 5 -22 21 -33 23 -17 24 -22 13 -36 -11 -13 -11 -19 -1
-31 10 -13 10 -19 -4 -33 -19 -22 -10 -37 12 -20 19 16 44 19 58 7 7 -5 25 -7
41 -4 15 4 23 3 17 -2 -6 -4 -15 -26 -18 -49 -6 -35 -4 -44 23 -74 l29 -34 19
22 c16 19 20 20 37 7 10 -8 15 -19 11 -26 -6 -8 -10 -7 -17 5 -8 15 -10 15
-25 0 -12 -12 -13 -18 -4 -23 6 -4 9 -15 5 -24 -6 -17 -21 -21 -56 -18 -10 1
-18 -3 -18 -8 0 -12 16 -14 63 -11 26 1 27 0 18 -18 -8 -16 -7 -21 6 -27 15
-5 15 -7 3 -15 -10 -6 -2 -7 22 -3 27 4 41 1 54 -11 9 -9 14 -20 10 -23 -3 -4
-12 -1 -18 5 -7 7 -22 12 -35 12 -32 0 -29 -28 5 -42 26 -11 26 -12 5 -15 -13
-3 -23 -9 -23 -14 0 -12 4 -11 35 3 14 6 25 15 25 20 0 15 23 8 47 -14 13 -12
23 -16 23 -10 0 7 4 12 9 12 5 0 0 -18 -12 -40 -14 -26 -29 -40 -42 -40 -15 0
-20 -7 -21 -30 -1 -19 4 -30 12 -30 8 0 14 9 14 20 0 21 34 40 68 40 14 -1 14
-3 -3 -12 -11 -6 -25 -18 -31 -27 -12 -16 -7 -44 6 -36 4 3 3 -13 -2 -35 -8
-29 -16 -40 -29 -40 -11 0 -19 -4 -19 -10 0 -6 9 -6 24 0 17 6 26 5 29 -3 2
-7 8 -8 13 -4 5 4 2 12 -5 16 -11 7 -11 14 0 40 11 26 20 31 46 31 31 0 41 -9
26 -23 -3 -4 -12 -2 -19 4 -20 16 -29 5 -28 -33 1 -18 -4 -36 -10 -40 -8 -5
-7 -11 1 -19 9 -9 16 -9 28 1 8 7 19 9 23 5 4 -4 1 -10 -5 -12 -22 -8 -14 -32
13 -39 14 -4 22 -10 17 -15 -10 -10 -92 25 -106 45 -6 7 -7 4 -3 -7 3 -10 6
-23 6 -28 0 -6 9 -7 20 -4 19 6 19 4 9 -19 -11 -23 -9 -29 16 -51 16 -13 32
-22 35 -19 3 3 -5 14 -17 24 -23 18 -31 40 -15 40 4 0 13 -5 20 -12 8 -8 15
-8 26 2 9 7 26 10 40 6 15 -4 27 -1 30 7 3 6 3 2 0 -11 -3 -13 0 -29 6 -37 7
-9 8 -15 2 -15 -5 0 -15 7 -22 15 -19 23 -44 18 -57 -12 -16 -33 -17 -53 -3
-53 6 0 10 -7 10 -16 0 -11 6 -15 20 -11 17 4 20 0 20 -23 0 -16 5 -32 10 -35
20 -12 9 -21 -20 -17 -33 5 -42 -13 -10 -21 11 -3 20 -12 20 -21 0 -9 5 -16
10 -16 6 0 10 6 10 13 0 12 34 47 46 47 3 0 -7 -16 -21 -35 -15 -19 -24 -39
-21 -44 4 -5 -2 -14 -11 -20 -17 -10 -17 -10 0 -11 9 0 25 -4 35 -9 9 -5 26
-13 37 -17 19 -7 19 -8 -4 -12 -13 -2 -28 1 -34 7 -6 6 -19 11 -29 11 -10 0
-26 4 -36 9 -9 5 -35 14 -57 20 -22 7 -49 16 -60 21 -11 4 -56 19 -100 33
-111 36 -248 86 -395 145 -240 96 -526 209 -605 239 -55 20 -79 34 -77 44 19
79 32 174 32 237 -1 148 -41 387 -105 617 -18 66 -36 134 -39 150 -4 17 -9 41
-12 55 -20 85 -55 347 -53 395 1 22 -3 53 -10 68 -12 32 -14 60 -4 70 11 12
13 8 7 -23z m-3256 -10 c-2 -6 -8 -6 -18 0 -13 9 -13 11 0 20 15 10 25 0 18
-20z m-27 -26 c14 -17 14 -164 1 -174 -4 -3 -9 -48 -10 -100 -4 -93 -46 -321
-92 -500 -37 -142 -63 -340 -62 -485 0 -106 5 -147 26 -225 13 -52 22 -98 18
-101 -4 -4 -74 -34 -157 -67 -82 -33 -197 -81 -255 -107 -209 -92 -427 -178
-565 -222 -77 -24 -167 -53 -200 -64 -33 -10 -68 -19 -78 -19 -9 0 -25 -4 -35
-9 -43 -23 -100 -33 -118 -22 -17 9 -15 10 12 11 41 0 59 21 44 49 -9 18 -8
21 9 21 10 0 22 7 25 16 4 11 15 14 33 11 16 -2 22 -2 16 0 -18 6 -16 33 2 33
8 0 15 5 15 10 0 6 -7 10 -15 10 -8 0 -15 -4 -15 -10 0 -18 -28 -11 -33 9 -3
15 0 17 16 13 14 -3 18 -1 13 6 -5 8 0 12 13 12 11 0 23 -4 26 -10 3 -5 14 -9
23 -9 15 1 15 2 1 6 -10 2 -20 12 -23 21 -3 9 -9 23 -12 30 -3 7 1 12 10 12 9
0 16 5 16 10 0 6 -7 10 -15 10 -13 0 -14 4 -5 20 6 11 17 20 25 20 21 0 19 21
-2 26 -27 7 -28 64 -3 71 11 3 20 10 20 15 0 6 14 8 30 6 37 -6 38 -2 1 16
-54 28 -48 66 11 66 20 0 30 8 40 30 14 32 38 41 38 13 0 -9 3 -14 6 -10 3 3
3 15 -1 26 -7 23 -31 28 -38 9 -3 -10 -7 -10 -17 -1 -7 6 -20 9 -29 5 -13 -5
-13 -3 2 12 11 12 27 16 43 13 26 -5 55 15 53 36 0 9 -2 8 -6 0 -6 -18 -33
-16 -33 1 0 8 -7 16 -15 20 -17 6 -21 36 -5 36 6 0 10 -7 10 -15 0 -8 7 -15
15 -15 8 0 15 6 15 14 0 9 7 12 21 9 24 -7 69 15 69 34 0 16 0 16 -44 -2 -21
-9 -36 -11 -36 -5 0 5 9 10 19 10 30 0 33 16 6 30 -32 17 -31 23 3 41 43 22
52 35 52 74 0 32 2 35 19 25 23 -12 40 5 22 23 -21 21 -13 40 14 35 21 -5 25
-2 20 13 -4 12 -1 21 9 25 9 3 16 12 16 20 0 17 -17 18 -23 2 -3 -7 -6 -3 -6
9 -1 12 7 27 17 33 14 9 11 10 -15 6 -31 -5 -32 -4 -15 12 14 14 19 15 30 5 7
-7 18 -13 23 -13 6 0 8 -9 4 -19 -3 -11 -1 -22 5 -26 14 -9 -6 -35 -26 -35
-19 0 -18 -16 1 -24 8 -3 15 0 15 7 0 7 8 19 18 26 12 8 17 21 14 36 -3 17 2
25 18 30 16 5 19 10 11 18 -6 6 -11 23 -11 38 0 20 6 28 25 33 14 4 25 10 25
15 0 14 37 51 50 51 9 0 7 7 -5 20 -18 20 -18 21 3 27 12 3 22 13 22 23 0 10
9 22 20 25 26 8 26 43 0 47 -30 4 -25 23 6 24 14 1 30 7 34 15 5 7 12 10 17 6
4 -4 2 -17 -5 -27 -15 -25 -1 -26 33 -4 17 11 26 29 30 58 7 42 38 96 50 85 3
-4 -1 -14 -10 -22 -17 -17 -20 -63 -5 -72 6 -3 10 3 10 15 0 30 21 58 40 53
10 -3 20 5 28 21 6 14 16 26 22 26 5 0 9 3 9 8 -4 26 3 34 25 28 19 -5 26 -1
31 14 3 11 13 20 21 20 8 0 14 5 14 10 0 6 10 20 21 31 20 20 20 23 5 31 -9 5
-16 18 -16 30 0 15 3 18 13 11 6 -6 20 -13 30 -16 15 -6 17 -3 12 16 -4 15 -3
18 3 8 12 -16 25 1 16 22 -3 8 2 17 10 20 10 4 16 1 16 -8 0 -8 4 -15 9 -15
15 0 23 18 11 25 -15 10 -12 35 5 35 8 0 15 -6 15 -12 0 -8 14 -13 35 -14 18
0 32 3 29 8 -3 4 -12 8 -20 8 -8 0 -14 6 -14 13 0 17 41 41 66 38 11 -1 27 5
34 13 7 9 9 16 4 17 -59 7 -74 5 -97 -17 -30 -28 -37 -30 -37 -10 0 8 -8 17
-17 19 -10 2 0 2 22 -1 34 -4 38 -3 27 11 -11 12 -8 16 13 21 14 4 36 4 49 0
34 -8 71 13 56 31 -13 16 -4 39 11 29 5 -3 7 -9 4 -14 -3 -4 5 -6 17 -2 28 7
51 37 59 77 6 28 7 29 14 8 9 -28 25 -29 48 -3 19 23 22 40 7 40 -5 0 -10 -4
-10 -10 0 -5 -10 -10 -22 -9 l-23 0 23 11 c26 13 28 26 7 34 -8 4 -12 10 -9
15 8 14 30 11 45 -7z m2736 -57 c-66 -111 -154 -207 -225 -244 -40 -21 -36
-15 15 25 54 43 126 126 167 190 53 85 91 111 43 29z m763 43 c0 -5 -5 -10
-11 -10 -5 0 -7 5 -4 10 3 6 8 10 11 10 2 0 4 -4 4 -10z m100 -30 c0 -5 -4
-10 -10 -10 -5 0 -10 5 -10 10 0 6 5 10 10 10 6 0 10 -4 10 -10z m-3023 -110
c33 -41 84 -97 112 -124 29 -26 50 -50 47 -53 -3 -3 -12 2 -21 11 -9 9 -20 16
-24 16 -29 0 -191 198 -191 234 0 12 -2 14 77 -84z m-770 74 c-3 -3 -12 -4
-19 -1 -8 3 -5 6 6 6 11 1 17 -2 13 -5z m3773 -44 c0 -21 -5 -30 -16 -30 -13
0 -14 3 -5 14 8 10 9 16 1 21 -15 9 -12 25 5 25 10 0 15 -10 15 -30z m-3700 4
c0 -8 -4 -12 -10 -9 -5 3 -10 10 -10 16 0 5 5 9 10 9 6 0 10 -7 10 -16z m3740
6 c0 -5 -4 -10 -10 -10 -5 0 -10 5 -10 10 0 6 5 10 10 10 6 0 10 -4 10 -10z
m15 -30 c3 -5 1 -10 -4 -10 -6 0 -11 5 -11 10 0 6 2 10 4 10 3 0 8 -4 11 -10z
m59 -16 c-19 -10 -31 -11 -38 -4 -7 7 -3 10 11 10 12 0 25 5 28 10 4 6 11 8
16 4 6 -3 -2 -13 -17 -20z m-3934 6 c0 -5 -5 -10 -11 -10 -5 0 -7 5 -4 10 3 6
8 10 11 10 2 0 4 -4 4 -10z m4035 -100 c3 -5 1 -10 -4 -10 -6 0 -11 5 -11 10
0 6 2 10 4 10 3 0 8 -4 11 -10z m-4188 -42 c-3 -8 -6 -5 -6 6 -1 11 2 17 5 13
3 -3 4 -12 1 -19z m-90 -20 c-3 -8 -6 -5 -6 6 -1 11 2 17 5 13 3 -3 4 -12 1
-19z m4303 12 c0 -5 -8 -10 -17 -10 -15 0 -16 2 -3 10 19 12 20 12 20 0z
m-4255 -30 c10 -11 14 -20 8 -20 -5 0 -18 9 -28 20 -10 11 -14 20 -8 20 5 0
18 -9 28 -20z m4279 -16 c3 -8 2 -12 -4 -9 -6 3 -10 10 -10 16 0 14 7 11 14
-7z m-4327 -63 c16 -25 6 -58 -20 -65 -29 -7 -30 -3 -7 24 22 25 26 40 10 40
-5 0 -10 5 -10 10 0 16 14 11 27 -9z m-42 -20 c3 -5 1 -12 -5 -16 -5 -3 -10 1
-10 9 0 18 6 21 15 7z m-65 -11 c0 -5 -4 -10 -10 -10 -5 0 -10 5 -10 10 0 6 5
10 10 10 6 0 10 -4 10 -10z m20 -72 c0 -7 -16 -23 -35 -35 -39 -26 -45 -27
-45 -13 0 6 6 10 13 10 7 0 21 11 31 25 20 27 36 33 36 13z m4757 -44 c-3 -3
-12 -4 -19 -1 -8 3 -5 6 6 6 11 1 17 -2 13 -5z m53 -74 c0 -5 -5 -10 -11 -10
-5 0 -7 5 -4 10 3 6 8 10 11 10 2 0 4 -4 4 -10z m-4980 -10 c0 -5 -2 -10 -4
-10 -3 0 -8 5 -11 10 -3 6 -1 10 4 10 6 0 11 -4 11 -10z m20 -46 c0 -8 -4 -12
-10 -9 -5 3 -10 10 -10 16 0 5 5 9 10 9 6 0 10 -7 10 -16z m4925 6 c-3 -5 -13
-10 -21 -10 -8 0 -12 5 -9 10 3 6 13 10 21 10 8 0 12 -4 9 -10z m44 -93 c3 0
13 -3 21 -8 11 -6 4 -8 -22 -9 -26 0 -40 5 -47 19 -14 26 -1 34 22 14 10 -10
22 -17 26 -16z m-5099 -13 c0 -2 -9 -4 -21 -4 -11 0 -18 4 -14 10 5 8 35 3 35
-6z m5181 -67 c-8 -8 -11 -8 -11 0 0 6 -3 20 -7 30 -7 17 -6 17 11 0 14 -14
16 -21 7 -30z m-5227 -21 c-7 -17 -34 -22 -34 -6 0 6 5 10 10 10 6 0 10 10 10
23 1 19 2 20 10 5 6 -9 7 -23 4 -32z m-54 14 c0 -5 -5 -10 -11 -10 -5 0 -7 5
-4 10 3 6 8 10 11 10 2 0 4 -4 4 -10z m5329 -59 c-21 -18 -59 -28 -59 -17 0 2
-2 11 -5 18 -4 11 2 13 29 10 19 -2 37 1 41 8 4 6 9 9 12 6 3 -3 -5 -14 -18
-25z m-5355 -86 c11 -8 17 -17 14 -21 -7 -6 -48 17 -48 28 0 12 13 9 34 -7z
m5493 -31 c-3 -3 -12 -4 -19 -1 -8 3 -5 6 6 6 11 1 17 -2 13 -5z m-67 -29 c0
-8 -7 -15 -15 -15 -16 0 -20 12 -8 23 11 12 23 8 23 -8z m-5510 -35 c0 -5 -5
-10 -11 -10 -5 0 -7 5 -4 10 3 6 8 10 11 10 2 0 4 -4 4 -10z m-75 -60 c3 -5
-3 -10 -15 -10 -12 0 -18 5 -15 10 3 6 10 10 15 10 5 0 12 -4 15 -10z m5645
-20 c0 -5 -7 -10 -15 -10 -8 0 -15 5 -15 10 0 6 7 10 15 10 8 0 15 -4 15 -10z
m30 -61 c0 -5 -7 -9 -15 -9 -15 0 -20 12 -9 23 8 8 24 -1 24 -14z m-5760 -67
c0 -13 -12 -22 -22 -16 -10 6 -1 24 13 24 5 0 9 -4 9 -8z m-57 -263 c-11 -11
-43 -1 -43 12 0 5 10 13 23 18 16 6 23 5 25 -6 2 -8 0 -19 -5 -24z m-66 -95
c-3 -3 -12 -4 -19 -1 -8 3 -5 6 6 6 11 1 17 -2 13 -5z m6167 -133 c3 -5 -1
-11 -9 -15 -9 -3 -15 0 -15 9 0 16 16 20 24 6z m21 -201 c3 -5 1 -10 -4 -10
-6 0 -11 5 -11 10 0 6 2 10 4 10 3 0 8 -4 11 -10z m40 -20 c-3 -5 -14 -10 -23
-9 -14 0 -13 2 3 9 27 11 27 11 20 0z m65 -59 c15 -4 20 -10 13 -14 -6 -4 -26
0 -44 8 -36 15 -16 19 31 6z m-6500 -31 c0 -5 -7 -10 -15 -10 -8 0 -15 5 -15
10 0 6 7 10 15 10 8 0 15 -4 15 -10z m6560 0 c0 -5 -4 -10 -10 -10 -5 0 -10 5
-10 10 0 6 5 10 10 10 6 0 10 -4 10 -10z m-6615 -20 c-3 -5 -13 -10 -21 -10
-8 0 -12 5 -9 10 3 6 13 10 21 10 8 0 12 -4 9 -10z m3298 -940 c-3 -11 -1 -20
4 -20 6 0 10 -19 11 -42 0 -24 1 -45 2 -48 21 -46 33 -660 14 -733 -7 -27 -10
-55 -7 -63 3 -9 -1 -14 -12 -14 -12 0 -15 5 -10 20 4 14 2 20 -8 20 -9 0 -15
10 -15 23 0 12 -3 36 -7 52 -3 17 -7 51 -8 78 -1 26 -4 47 -8 47 -4 0 -6 17
-4 38 1 20 -2 45 -7 56 -7 13 -6 21 2 26 9 6 9 9 0 15 -6 4 -9 14 -6 22 4 9 1
22 -5 29 -7 9 -8 14 -1 14 13 0 11 52 -3 63 -6 6 -6 10 3 14 10 4 10 8 0 21
-10 12 -10 16 0 19 6 3 9 10 5 16 -12 18 -10 241 2 250 6 4 5 11 -5 17 -13 8
-13 11 -1 19 8 5 10 14 6 21 -5 8 -1 18 10 27 18 13 18 13 0 13 -23 0 -9 16
20 22 28 6 34 1 28 -22z m1537 -1250 c26 -17 2 -23 -83 -21 -46 1 -252 -2
-458 -8 -703 -19 -855 -23 -1464 -30 -335 -5 -614 -4 -620 0 -25 23 31 30 340
39 800 26 2256 39 2285 20z m-2850 -1027 c0 -49 -27 -291 -45 -408 -8 -49 -17
-107 -20 -127 -7 -44 -16 -47 -47 -14 -21 23 -32 25 -153 32 -176 9 -198 11
-215 18 -30 11 -220 13 -234 2 -18 -14 -4 -56 19 -56 9 0 26 -6 38 -14 42 -27
191 -55 322 -62 106 -5 195 -17 195 -27 0 -1 9 -27 20 -57 24 -65 25 -99 6
-126 -14 -18 -28 -19 -339 -17 -293 2 -328 4 -373 21 -39 16 -53 28 -71 63
-23 46 -30 99 -13 99 6 0 16 11 22 25 6 14 28 35 47 47 43 26 77 61 85 86 7
21 -17 48 -34 37 -20 -13 -69 34 -75 73 -3 20 -8 48 -11 60 l-5 24 -21 -27
c-11 -14 -23 -24 -26 -21 -8 8 72 107 132 164 96 91 193 119 345 101 52 -6
108 -8 126 -5 27 5 247 106 295 136 26 15 30 11 30 -27z m3275 -53 c85 -43
218 -170 255 -245 21 -43 24 -62 22 -130 -3 -94 -19 -181 -39 -211 -14 -22
-42 -35 -78 -36 -23 -1 -99 19 -124 32 -28 15 -74 23 -129 22 -53 0 -186 19
-252 37 -19 5 -47 12 -62 15 l-28 6 0 90 c0 105 -20 94 168 90 85 -1 122 1
122 9 0 6 -11 16 -25 21 -14 5 -25 16 -25 24 0 7 -6 19 -14 25 -12 10 -18 8
-31 -12 -13 -20 -28 -26 -73 -32 -34 -4 -69 -2 -86 5 l-29 10 7 88 c4 48 13
116 19 152 l12 65 55 6 c30 4 102 6 160 5 98 -2 110 -4 175 -36z m-4270 -370
c-3 -5 -13 -10 -20 -10 -9 0 -12 -6 -9 -17 4 -13 3 -14 -3 -5 -7 9 -16 10 -34
3 -13 -5 -18 -10 -11 -10 7 -1 11 -5 8 -10 -4 -5 0 -11 6 -14 9 -3 7 -11 -8
-28 -11 -13 -31 -41 -45 -61 -26 -41 -27 -42 -47 -29 -19 11 8 73 45 106 20
17 23 24 12 25 -20 0 -47 -30 -92 -102 -53 -84 -77 -134 -77 -162 0 -14 -4
-27 -9 -30 -5 -3 -11 -20 -14 -38 -3 -18 -10 -51 -16 -73 -18 -64 -31 -134
-41 -220 -5 -44 -14 -114 -20 -155 -19 -120 -3 -270 57 -519 4 -17 2 -22 -6
-17 -6 4 -11 13 -11 20 0 7 -9 31 -20 53 -54 113 -86 318 -77 496 21 391 140
694 302 772 33 16 64 24 128 34 5 0 5 -3 2 -9z m4645 -144 c0 -14 -9 -3 -25
28 -32 62 -32 69 0 26 14 -19 25 -43 25 -54z m-4833 -58 c-3 -8 -6 -5 -6 6 -1
11 2 17 5 13 3 -3 4 -12 1 -19z m-40 -90 c-3 -8 -6 -5 -6 6 -1 11 2 17 5 13 3
-3 4 -12 1 -19z m-39 -103 c-3 -3 -9 2 -12 12 -6 14 -5 15 5 6 7 -7 10 -15 7
-18z m-16 -76 l-10 -34 -1 45 c-1 31 2 41 10 33 7 -7 7 -21 1 -44z m4975 -96
c-2 -21 -4 -4 -4 37 0 41 2 58 4 38 2 -21 2 -55 0 -75z m-4111 -23 c117 -17
145 -25 185 -51 26 -16 52 -36 58 -43 16 -19 4 -42 -29 -56 -32 -13 -44 -15
-181 -28 -52 -4 -100 -11 -106 -15 -22 -14 -127 -16 -158 -3 -34 15 -92 70
-101 98 -7 22 21 70 50 88 53 34 106 36 282 10z m-835 -115 c19 -1 119 -105
119 -124 0 -13 7 -21 18 -22 10 0 12 -3 5 -6 -7 -2 -13 -11 -13 -18 0 -9 -20
-15 -59 -20 -61 -7 -101 -1 -101 16 0 5 -11 9 -25 9 -16 0 -23 4 -19 14 3 7
-1 20 -9 28 -20 19 -13 99 10 116 9 6 13 12 7 12 -5 0 -2 4 5 9 10 6 23 5 35
-2 12 -6 24 -11 27 -12z m69 -679 c0 -14 -32 -76 -39 -76 -5 0 -14 14 -21 31
-11 26 -11 32 1 40 14 9 59 13 59 5z"/>
<path d="M6750 7415 c0 -8 5 -15 10 -15 6 0 10 7 10 15 0 8 -4 15 -10 15 -5 0
-10 -7 -10 -15z"/>
<path d="M6791 7393 c-1 -7 -7 -13 -15 -13 -14 0 -30 -29 -21 -38 3 -3 6 1 6
9 1 8 5 -2 9 -21 l7 -35 2 32 c1 44 19 51 32 13 12 -34 32 -35 37 -2 3 17 -2
22 -18 22 -12 0 -24 9 -30 23 -5 12 -9 16 -9 10z"/>
<path d="M6791 7304 c0 -11 3 -14 6 -6 3 7 2 16 -1 19 -3 4 -6 -2 -5 -13z"/>
<path d="M6915 7240 c-10 -11 -15 -20 -11 -20 11 0 39 30 34 36 -3 2 -13 -5
-23 -16z"/>
<path d="M6956 7244 c-4 -9 -4 -19 -2 -21 8 -8 26 8 26 23 0 19 -16 18 -24 -2z"/>
<path d="M7120 7170 c0 -5 5 -10 10 -10 6 0 10 5 10 10 0 6 -4 10 -10 10 -5 0
-10 -4 -10 -10z"/>
<path d="M7266 7021 c-4 -7 -5 -15 -2 -18 9 -9 19 4 14 18 -4 11 -6 11 -12 0z"/>
<path d="M7305 6970 c-4 -6 -15 -8 -24 -5 -10 3 -29 1 -42 -5 -24 -10 -24 -10
3 -5 15 3 29 1 32 -4 4 -5 18 -5 35 2 17 6 28 15 25 19 -7 11 -22 10 -29 -2z"/>
<path d="M7345 6870 c3 -5 8 -10 11 -10 2 0 4 5 4 10 0 6 -5 10 -11 10 -5 0
-7 -4 -4 -10z"/>
<path d="M7540 6710 c0 -5 5 -10 10 -10 6 0 10 5 10 10 0 6 -4 10 -10 10 -5 0
-10 -4 -10 -10z"/>
<path d="M7583 6700 c-11 -16 -10 -18 2 -14 8 4 15 12 15 20 0 19 -3 18 -17
-6z"/>
<path d="M7511 6674 c0 -11 3 -14 6 -6 3 7 2 16 -1 19 -3 4 -6 -2 -5 -13z"/>
<path d="M7585 6630 c3 -5 8 -10 11 -10 2 0 4 5 4 10 0 6 -5 10 -11 10 -5 0
-7 -4 -4 -10z"/>
<path d="M7662 6593 c-17 -30 -15 -37 4 -19 8 9 14 22 11 29 -2 7 -8 4 -15
-10z"/>
<path d="M7682 6520 c0 -14 2 -19 5 -12 2 6 2 18 0 25 -3 6 -5 1 -5 -13z"/>
<path d="M7752 6415 c0 -11 3 -29 8 -40 9 -19 9 -19 16 3 3 12 10 22 15 22 5
0 9 7 9 15 0 8 -4 15 -10 15 -5 0 -10 -7 -10 -15 0 -21 -18 -19 -23 3 -4 14
-5 14 -5 -3z"/>
<path d="M7880 6150 c0 -5 5 -10 10 -10 6 0 10 5 10 10 0 6 -4 10 -10 10 -5 0
-10 -4 -10 -10z"/>
<path d="M7906 6132 c-2 -4 -1 -14 5 -22 7 -12 9 -10 9 8 0 23 -5 28 -14 14z"/>
<path d="M7993 6054 c-30 -32 -29 -38 5 -30 26 7 52 31 52 48 0 16 -36 5 -57
-18z"/>
<path d="M8080 5650 c0 -5 5 -10 10 -10 6 0 10 5 10 10 0 6 -4 10 -10 10 -5 0
-10 -4 -10 -10z"/>
<path d="M8115 5610 c-3 -5 -1 -10 4 -10 6 0 11 5 11 10 0 6 -2 10 -4 10 -3 0
-8 -4 -11 -10z"/>
<path d="M3324 7266 c-10 -8 -16 -17 -12 -21 7 -7 48 16 48 27 0 12 -14 9 -36
-6z"/>
<path d="M3196 7154 c-9 -22 -8 -23 13 -17 12 3 17 11 14 19 -7 19 -19 18 -27
-2z"/>
<path d="M3200 7090 c0 -5 5 -10 11 -10 5 0 7 5 4 10 -3 6 -8 10 -11 10 -2 0
-4 -4 -4 -10z"/>
<path d="M3140 7070 c0 -5 5 -10 10 -10 21 0 9 -20 -12 -21 -19 -1 -20 -2 -4
-6 23 -6 38 9 30 30 -7 18 -24 23 -24 7z"/>
<path d="M3073 7043 c-12 -2 -24 -11 -27 -20 -9 -22 2 -29 17 -11 6 9 21 20
32 26 20 12 16 12 -22 5z"/>
<path d="M3035 6970 c-3 -5 -1 -10 4 -10 6 0 11 5 11 10 0 6 -2 10 -4 10 -3 0
-8 -4 -11 -10z"/>
<path d="M2840 6750 c0 -5 5 -10 10 -10 6 0 10 5 10 10 0 6 -4 10 -10 10 -5 0
-10 -4 -10 -10z"/>
<path d="M2700 6670 c0 -5 5 -10 10 -10 6 0 10 5 10 10 0 6 -4 10 -10 10 -5 0
-10 -4 -10 -10z"/>
<path d="M2668 6642 c7 -5 12 -14 10 -19 -2 -6 2 -11 7 -12 19 -2 10 34 -10
37 -14 2 -16 1 -7 -6z"/>
<path d="M2640 6570 c0 -5 5 -10 11 -10 5 0 7 5 4 10 -3 6 -8 10 -11 10 -2 0
-4 -4 -4 -10z"/>
<path d="M2580 6469 c0 -5 5 -7 10 -4 6 3 10 8 10 11 0 2 -4 4 -10 4 -5 0 -10
-5 -10 -11z"/>
<path d="M2500 6446 c0 -10 9 -16 21 -16 24 0 21 23 -4 28 -10 2 -17 -3 -17
-12z"/>
<path d="M2365 6200 c-3 -5 -4 -10 -1 -10 2 0 11 -3 20 -6 11 -4 16 -1 16 10
0 18 -25 22 -35 6z"/>
<path d="M2305 6123 c-32 -8 -36 -17 -11 -29 19 -9 24 -7 33 13 6 13 8 22 5
22 -4 -1 -16 -3 -27 -6z"/>
<path d="M2140 5819 c0 -6 6 -17 14 -25 19 -18 33 1 16 21 -15 18 -30 20 -30
4z"/>
<path d="M2235 5750 c4 -6 11 -8 16 -5 14 9 11 15 -7 15 -8 0 -12 -5 -9 -10z"/>
<path d="M2105 5710 c-21 -24 -18 -28 21 -34 16 -2 23 -1 16 1 -9 3 -12 13 -8
29 8 29 -5 31 -29 4z"/>
<path d="M2161 5574 c0 -11 3 -14 6 -6 3 7 2 16 -1 19 -3 4 -6 -2 -5 -13z"/>
<path d="M2080 5470 c0 -5 5 -10 10 -10 6 0 10 5 10 10 0 6 -4 10 -10 10 -5 0
-10 -4 -10 -10z"/>
<path d="M2018 5423 c-11 -3 -18 -14 -18 -29 0 -22 2 -23 20 -12 11 7 20 18
20 25 0 7 18 13 43 16 l42 4 -45 0 c-25 0 -53 -1 -62 -4z"/>
</g>
</svg>
